<!DOCTYPE svg PUBLIC "-//W3C//DTD SVG 1.1//EN" "http://www.w3.org/Graphics/SVG/1.1/DTD/svg11.dtd">
<!-- Uploaded to: SVG Repo, www.svgrepo.com, Transformed by: SVG Repo Mixer Tools -->
<svg fill="#343134" width="64px" height="64px" viewBox="-4.8 -4.8 33.60 33.60" id="Layer_1" version="1.1" xml:space="preserve" xmlns="http://www.w3.org/2000/svg" xmlns:xlink="http://www.w3.org/1999/xlink" stroke="#343134" stroke-width="0.00024000000000000003">
<g id="SVGRepo_bgCarrier" stroke-width="0" transform="translate(0,0), scale(1)">
<path transform="translate(-4.8, -4.8), scale(2.1)" fill="#ec6e18" d="M9.166.33a2.25 2.25 0 00-2.332 0l-5.25 3.182A2.25 2.25 0 00.5 5.436v5.128a2.25 2.25 0 001.084 1.924l5.25 3.182a2.25 2.25 0 002.332 0l5.25-3.182a2.25 2.25 0 001.084-1.924V5.436a2.25 2.25 0 00-1.084-1.924L9.166.33z" strokewidth="0"/>
</g>
<g id="SVGRepo_tracerCarrier" stroke-linecap="round" stroke-linejoin="round" stroke="#CCCCCC" stroke-width="0.288"/>
<g id="SVGRepo_iconCarrier">
<path d="M16.71,9.29c-0.39-0.39-1.02-0.39-1.41,0L14,10.59l-0.29-0.29c-0.39-0.39-1.02-0.39-1.41,0s-0.39,1.02,0,1.41l1,1 C13.49,12.9,13.74,13,14,13s0.51-0.1,0.71-0.29l2-2C17.1,10.32,17.1,9.68,16.71,9.29z"/>
<path d="M7,5c0-0.55-0.45-1-1-1H5C4.45,4,4,4.45,4,5v16c0,0.55,0.45,1,1,1h14c0.55,0,1-0.45,1-1V5c0-0.55-0.45-1-1-1h-1 c-0.55,0-1,0.45-1,1s0.45,1,1,1v14H6V6C6.55,6,7,5.55,7,5z"/>
<path d="M15,2H9C8.45,2,8,2.45,8,3v4c0,0.55,0.45,1,1,1h6c0.55,0,1-0.45,1-1V3C16,2.45,15.55,2,15,2z M14,6h-4V4h4V6z"/>
<path d="M8,12c0,0.55,0.45,1,1,1s1-0.45,1-1v-2c0-0.55-0.45-1-1-1s-1,0.45-1,1V12z"/>
<path d="M8,17c0,0.55,0.45,1,1,1s1-0.45,1-1v-2c0-0.55-0.45-1-1-1s-1,0.45-1,1V17z"/>
<path d="M15.71,14.29c-0.39-0.39-1.02-0.39-1.41,0L14,14.59l-0.29-0.29c-0.39-0.39-1.02-0.39-1.41,0s-0.39,1.02,0,1.41L12.59,16 l-0.29,0.29c-0.39,0.39-0.39,1.02,0,1.41C12.49,17.9,12.74,18,13,18s0.51-0.1,0.71-0.29L14,17.41l0.29,0.29 C14.49,17.9,14.74,18,15,18s0.51-0.1,0.71-0.29c0.39-0.39,0.39-1.02,0-1.41L15.41,16l0.29-0.29C16.1,15.32,16.1,14.68,15.71,14.29z"/>
</g>
</svg>