<!DOCTYPE svg PUBLIC "-//W3C//DTD SVG 1.1//EN" "http://www.w3.org/Graphics/SVG/1.1/DTD/svg11.dtd">

<!-- Uploaded to: SVG Repo, www.svgrepo.com, Transformed by: SVG Repo Mixer Tools -->
<svg fill="#ec6e18" width="35px" height="35px" viewBox="0 0 24 24" version="1.2" baseProfile="tiny" xmlns="http://www.w3.org/2000/svg">

<g id="SVGRepo_bgCarrier" stroke-width="0"/>

<g id="SVGRepo_tracerCarrier" stroke-linecap="round" stroke-linejoin="round"/>

<g id="SVGRepo_iconCarrier"> <g> <path d="M19 3h-11c-1.654 0-3 1.346-3 3v1h-1c-.553 0-1 .448-1 1s.447 1 1 1h1v2h-1c-.553 0-1 .448-1 1s.447 1 1 1h1v2h-1c-.553 0-1 .448-1 1s.447 1 1 1h1v1c0 1.654 1.346 3 3 3h11c1.654 0 3-1.346 3-3v-12c0-1.654-1.346-3-3-3zm-12 3c0-.551.449-1 1-1v2h-1v-1zm0 3h1v2h-1v-2zm0 4h1v2h-1v-2zm0 5v-1h1v2c-.551 0-1-.449-1-1zm13 0c0 .551-.449 1-1 1h-10v-14h10c.551 0 1 .449 1 1v12z"/> <circle cx="14" cy="10.5" r="2"/> <path d="M14 13.356c-1.562 0-2.5.715-2.5 1.429 0 .357.938.715 2.5.715 1.466 0 2.5-.357 2.5-.715 0-.714-.98-1.429-2.5-1.429z"/> </g> </g>

</svg>