<!DOCTYPE svg PUBLIC "-//W3C//DTD SVG 1.1//EN" "http://www.w3.org/Graphics/SVG/1.1/DTD/svg11.dtd">

<!-- Uploaded to: SVG Repo, www.svgrepo.com, Transformed by: SVG Repo Mixer Tools -->
<svg width="80px" height="80px" viewBox="-9.12 -9.12 66.24 66.24" xmlns="http://www.w3.org/2000/svg" fill="#000000">

<g id="SVGRepo_bgCarrier" stroke-width="0">

<path transform="translate(-9.12, -9.12), scale(4.14)" fill="#e69c0b" d="M9.166.33a2.25 2.25 0 00-2.332 0l-5.25 3.182A2.25 2.25 0 00.5 5.436v5.128a2.25 2.25 0 001.084 1.924l5.25 3.182a2.25 2.25 0 002.332 0l5.25-3.182a2.25 2.25 0 001.084-1.924V5.436a2.25 2.25 0 00-1.084-1.924L9.166.33z" strokewidth="0"/>

</g>

<g id="SVGRepo_tracerCarrier" stroke-linecap="round" stroke-linejoin="round"/>

<g id="SVGRepo_iconCarrier"> 
<path d="M0 0h48v48H0z" fill="none"/> 
<g id="Shopicon"> 
<path fill="#343134" d="M17.074,33.829l2.255,2.097h-6.176c-1.886,0-3.289-0.559-3.848-1.534c-0.56-0.975-0.336-2.468,0.614-4.097l3.128-5.361 l-3.455-2.016l-3.128,5.361c-1.717,2.942-1.939,5.821-0.628,8.104c1.312,2.284,3.91,3.542,7.317,3.542h6.177l-2.256,2.097 l2.724,2.93l7.557-7.025l-7.557-7.027L17.074,33.829z"/> 
<path fill="#343134" d="M35.213,16.918l-4.295-7.362C29.205,6.618,26.802,5,24.152,5c-2.649,0-5.052,1.618-6.766,4.556l-2.024,3.469l-0.675-3.006 l-3.902,0.877l2.261,10.067l9.877-2.987l-1.158-3.828l-2.946,0.891l2.023-3.467C21.794,9.938,23.001,9,24.152,9 c1.151,0,2.358,0.938,3.312,2.571l4.295,7.362L35.213,16.918z"/> 
<path fill="#343134" d="M32.953,30.954l3.902,0.877l0.675-3.004l0.856,1.467c0.95,1.629,1.174,3.122,0.614,4.098 c-0.56,0.975-1.962,1.533-3.848,1.533h-4v4h4c3.406,0,6.005-1.258,7.316-3.541c1.312-2.284,1.089-5.162-0.627-8.105l-0.857-1.469 l2.948,0.891l1.158-3.828l-9.876-2.987L32.953,30.954z"/> </g> </g>

</svg>