<svg fill="#343134" height="80px" width="80px" version="1.1" xmlns="http://www.w3.org/2000/svg" xmlns:xlink="http://www.w3.org/1999/xlink" viewBox="-7.2 -7.2 38.40 38.40" xml:space="preserve">
<g id="SVGRepo_bgCarrier" stroke-width="0"><path transform="translate(-7.2, -7.2), scale(2.4)" fill="#e69c0b" d="M9.166.33a2.25 2.25 0 00-2.332 0l-5.25 3.182A2.25 2.25 0 00.5 5.436v5.128a2.25 2.25 0 001.084 1.924l5.25 3.182a2.25 2.25 0 002.332 0l5.25-3.182a2.25 2.25 0 001.084-1.924V5.436a2.25 2.25 0 00-1.084-1.924L9.166.33z" strokewidth="0"></path>
</g>
<g id="SVGRepo_tracerCarrier" stroke-linecap="round" stroke-linejoin="round"></g
><g id="SVGRepo_iconCarrier"> <g id="vm-maintenance"> 
<path d="M23.7,13.7l-2,2l-1.4-1.4l2-2c-1.1-0.6-2.5-0.4-3.5,0.6c-0.9,0.9-1.1,2.3-0.6,3.5L13,21.6l1.4,1.4l5.2-5.2 c1.1,0.5,2.5,0.4,3.5-0.6C24,16.3,24.2,14.9,23.7,13.7z"></path> 
<path d="M12,20H0V8h4V1h12v4h3v5h-2V7h-1v6h-4v2h2v2h-2V20z M2,18h8v-1H7v-4H4v-3H2V18z M9,15h1v-2H9V15z M12,11h2V7H9v1h3V11z M9,11h1v-1H9V11z M6,11h1v-1H6V11z M6,8h1V5h7V3H6V8z"></path> 
</g> 
</g>
</svg>