<?xml version="1.0" standalone="no"?>
<!DOCTYPE svg PUBLIC "-//W3C//DTD SVG 20010904//EN"
 "http://www.w3.org/TR/2001/REC-SVG-20010904/DTD/svg10.dtd">
<svg version="1.0" xmlns="http://www.w3.org/2000/svg"
 width="206.000000pt" height="206.000000pt" viewBox="0 0 206.000000 206.000000"
 preserveAspectRatio="xMidYMid meet">
<metadata>
Created by potrace 1.14, written by Peter Selinger 2001-2017
</metadata>
<g transform="translate(0.000000,206.000000) scale(0.100000,-0.100000)"
fill="#000000" stroke="none">
<path d="M999 1739 c-30 -33 -65 -73 -79 -88 -38 -41 -173 -191 -193 -215 -10
-12 -35 -39 -55 -61 -21 -22 -78 -85 -127 -140 -49 -55 -104 -116 -121 -135
-18 -19 -42 -46 -54 -60 -12 -14 -56 -63 -98 -109 -108 -118 -110 -121 -177
-197 -33 -37 -68 -75 -77 -83 -16 -14 -18 -37 -18 -198 l0 -182 204 1 c113 1
208 4 213 7 4 3 25 25 46 49 33 38 37 40 37 19 0 -32 20 -56 55 -65 44 -12 79
-1 83 27 3 17 0 21 -10 15 -36 -23 -78 -12 -78 21 0 28 30 41 60 25 11 -6 20
-7 21 -3 0 4 2 16 4 26 3 18 -19 23 -75 18 l-25 -3 23 25 24 25 499 0 c275 0
502 2 505 5 5 4 -99 133 -130 162 -6 6 -40 44 -75 85 -36 41 -72 82 -81 91
-13 13 -44 16 -185 17 -94 0 -178 1 -188 1 -17 1 -16 5 8 34 24 27 102 115
179 201 33 36 133 149 153 172 21 24 130 147 164 185 27 29 142 158 168 187
27 32 145 164 159 178 6 7 12 15 12 18 0 3 -161 6 -359 6 l-358 0 -54 -61z"/>
<path d="M1860 1771 c-29 -33 -173 -191 -210 -230 -14 -14 -54 -60 -89 -101
-36 -41 -74 -84 -85 -96 -12 -12 -33 -34 -47 -50 -14 -17 -71 -80 -128 -143
l-102 -112 73 -81 c40 -45 82 -91 93 -103 11 -11 54 -59 95 -105 41 -47 93
-105 116 -130 71 -79 119 -132 129 -144 6 -7 21 -24 35 -40 16 -18 19 -25 8
-21 -11 4 -18 0 -23 -14 -8 -27 -20 -27 -38 0 -13 18 -18 19 -37 9 -13 -7 -19
-15 -14 -19 5 -3 17 -18 27 -34 14 -21 15 -32 6 -48 -12 -24 -11 -26 16 -31
14 -2 25 6 35 27 9 17 25 44 36 62 l20 32 58 -65 57 -64 85 0 84 0 0 179 0
179 -42 48 c-24 26 -52 57 -63 68 -11 12 -49 55 -85 96 -36 40 -74 83 -85 95
-11 11 -37 39 -57 62 l-37 41 27 29 c15 16 63 69 107 118 44 49 101 112 127
140 26 27 60 66 77 85 l31 35 0 178 0 177 -87 0 c-84 0 -89 -1 -113 -29z"/>
<path d="M907 419 c-4 -19 -9 -52 -12 -74 -3 -22 -8 -45 -10 -52 -5 -15 37
-25 46 -11 4 7 5 16 2 21 -3 5 0 8 8 5 8 -3 19 -15 26 -27 l11 -23 17 26 c16
24 37 36 34 19 -4 -22 3 -32 21 -30 14 1 20 8 20 26 0 40 -23 158 -28 139 -2
-10 -8 -18 -13 -18 -5 0 -9 -5 -9 -11 0 -6 -10 -24 -21 -41 -24 -33 -18 -37
-65 47 l-21 38 -6 -34z"/>
<path d="M1286 358 c-39 -64 -43 -74 -28 -80 26 -10 27 -10 45 21 20 34 49 32
66 -5 11 -25 35 -32 46 -14 6 10 -24 72 -37 78 -5 2 -8 8 -8 14 0 5 -9 21 -19
34 l-19 24 -46 -72z"/>
<path d="M1454 351 c0 -65 3 -78 16 -76 8 2 18 4 23 4 4 1 7 16 7 34 l1 32 24
-27 c13 -16 27 -28 31 -28 4 0 13 -8 20 -17 18 -26 25 -12 25 48 1 94 0 97
-18 94 -10 -2 -22 -4 -27 -4 -4 -1 -6 -8 -2 -16 3 -8 3 -21 0 -29 -4 -11 -16
-4 -47 25 -23 21 -44 39 -47 39 -3 0 -6 -35 -6 -79z"/>
<path d="M707 398 c-41 -37 -43 -63 -9 -98 24 -23 37 -29 64 -26 48 5 77 22
84 51 13 51 -12 80 -79 90 -27 5 -40 1 -60 -17z m90 -38 c10 -15 10 -22 -3
-35 -20 -20 -53 -16 -68 8 -9 15 -7 21 8 33 27 19 49 18 63 -6z"/>
<path d="M1116 412 c-4 -3 -6 -36 -6 -74 0 -64 1 -68 22 -65 12 2 24 11 28 21
3 9 17 22 30 29 27 13 36 59 16 76 -13 11 -83 21 -90 13z m51 -54 c-3 -8 -6
-5 -6 6 -1 11 2 17 5 13 3 -3 4 -12 1 -19z"/>
</g>
</svg>
