<?xml version="1.0" standalone="no"?>
<!DOCTYPE svg PUBLIC "-//W3C//DTD SVG 20010904//EN"
 "http://www.w3.org/TR/2001/REC-SVG-20010904/DTD/svg10.dtd">
<svg version="1.0" xmlns="http://www.w3.org/2000/svg"
 width="206.000000pt" height="206.000000pt" viewBox="0 0 206.000000 206.000000"
 preserveAspectRatio="xMidYMid meet">
<metadata>
Created by potrace 1.14, written by Peter Selinger 2001-2017
</metadata>
<g transform="translate(0.000000,206.000000) scale(0.100000,-0.100000)"
fill="#000000" stroke="none">
<path d="M173 1369 c-10 -3 -44 -78 -90 -199 -40 -106 -73 -197 -73 -202 0 -4
24 -8 54 -8 53 0 55 1 67 35 7 19 20 35 29 36 85 4 122 4 129 -1 4 -3 12 -18
18 -35 9 -28 13 -30 66 -33 31 -2 57 0 57 5 0 4 -34 97 -76 208 l-76 200 -44
0 c-25 0 -52 -3 -61 -6z m75 -201 l21 -58 -48 0 -49 0 21 65 c12 36 24 62 27
57 4 -4 16 -33 28 -64z"/>
<path d="M490 1372 l-26 -3 0 -204 0 -205 53 0 52 0 3 112 3 111 39 -72 40
-72 40 3 c39 3 43 6 81 73 l40 70 3 -113 3 -112 52 0 52 0 0 205 0 205 -57 0
-57 0 -57 -105 c-32 -58 -61 -102 -65 -98 -4 5 -28 49 -54 98 -26 50 -51 93
-54 97 -8 9 -56 15 -91 10z"/>
<path d="M1013 1370 c-17 -5 -18 -21 -18 -207 l0 -203 52 0 53 0 0 58 0 57 97
2 c145 4 173 33 163 173 -5 63 -9 75 -33 96 -23 20 -39 24 -90 24 -34 1 -94 2
-134 3 -40 1 -80 0 -90 -3z m236 -103 c10 -25 8 -78 -3 -96 -4 -6 -36 -11 -77
-11 l-69 0 0 65 0 65 70 0 c64 0 71 -2 79 -23z"/>
<path d="M1456 1370 l-59 -5 -2 -37 c-1 -35 1 -38 27 -38 l28 0 0 -125 0 -125
-27 0 c-26 0 -28 -3 -28 -37 l1 -38 107 -3 107 -3 0 41 c0 28 -4 40 -15 41 -8
1 -20 2 -27 3 -9 1 -12 34 -12 121 l0 120 27 3 c24 3 27 7 27 43 0 36 -2 39
-27 40 -16 0 -37 1 -48 2 -11 1 -47 0 -79 -3z"/>
<path d="M1708 1372 l-46 -3 0 -205 1 -204 53 0 53 0 3 62 c3 67 -1 63 66 59
11 -1 29 -23 47 -61 l30 -60 58 0 c31 0 57 2 57 5 0 2 -15 30 -34 61 l-33 57
30 27 c27 24 31 35 35 93 5 76 -11 132 -42 152 -22 15 -173 24 -278 17z m210
-136 c2 -27 -1 -53 -7 -59 -5 -5 -39 -10 -75 -11 l-66 -1 0 63 0 63 73 -3 72
-3 3 -49z"/>
<path d="M306 933 c-30 -16 -33 -30 -32 -147 2 -127 2 -126 136 -130 70 -2
107 10 116 37 10 32 11 167 2 204 -5 20 -17 35 -31 39 -37 12 -167 10 -191 -3z
m154 -71 c3 -13 3 -51 0 -85 l-5 -62 -47 -3 c-56 -4 -64 7 -63 89 2 84 7 90
62 87 40 -3 48 -7 53 -26z"/>
<path d="M50 922 c-19 -15 -22 -29 -24 -103 -3 -118 6 -148 47 -156 18 -4 40
-7 50 -6 9 0 42 1 72 2 54 1 55 2 55 30 l0 28 -69 -3 c-43 -3 -72 0 -76 7 -12
19 -9 150 3 158 6 4 41 6 77 5 l65 -2 0 29 0 29 -89 0 c-70 0 -93 -4 -111 -18z"/>
<path d="M579 938 c-1 -2 -3 -65 -4 -140 l-2 -138 36 0 37 0 1 66 c1 36 3 68
6 70 3 3 16 -14 29 -38 34 -62 72 -58 108 12 11 22 21 40 23 40 1 0 2 -34 1
-75 l0 -75 36 0 37 0 -1 140 0 140 -38 0 c-35 0 -38 -3 -75 -70 -21 -38 -40
-70 -43 -70 -3 0 -21 30 -41 68 -33 62 -39 67 -72 70 -21 2 -38 2 -38 0z"/>
<path d="M939 938 c-1 -2 -2 -65 -3 -140 l-1 -138 37 0 c33 0 37 2 36 28 -1
52 -1 52 67 52 95 0 110 20 105 130 -2 58 -26 70 -141 70 -54 0 -100 -1 -100
-2z m154 -57 c13 -1 17 -10 17 -41 0 -34 -3 -40 -22 -42 -13 0 -30 -2 -38 -3
-31 -3 -48 13 -44 45 6 49 3 47 87 41z"/>
<path d="M1245 868 c-47 -124 -75 -201 -75 -204 0 -2 18 -4 39 -4 33 0 40 4
45 25 6 23 11 25 56 25 45 0 52 -3 60 -25 8 -21 16 -25 49 -25 l40 0 -25 66
c-85 226 -75 209 -120 212 l-41 3 -28 -73z m94 -95 c1 -13 -40 -18 -51 -7 -3
3 1 24 10 46 l16 41 12 -34 c7 -19 13 -40 13 -46z"/>
<path d="M1479 905 c0 -19 0 -62 0 -95 0 -162 -3 -150 36 -150 l35 0 0 82 c0
93 0 93 60 -19 32 -60 35 -63 72 -63 29 0 38 4 39 18 1 20 1 231 0 250 -1 7
-15 12 -36 12 l-34 0 -3 -82 c-3 -81 -3 -82 -18 -53 -62 124 -71 135 -112 135
-37 0 -38 -1 -39 -35z"/>
<path d="M1792 838 c30 -60 52 -118 53 -138 1 -33 3 -35 35 -35 32 0 34 2 36
35 1 19 24 78 50 130 27 52 50 98 52 103 2 4 -14 7 -35 7 -38 0 -39 -1 -67
-65 -15 -36 -31 -65 -35 -65 -3 0 -19 30 -35 65 -28 64 -30 65 -68 65 l-38 0
52 -102z"/>
</g>
</svg>
