<svg width="80px" height="80px" viewBox="-12.48 -12.48 72.96 72.96" xmlns="http://www.w3.org/2000/svg" fill="#000000">
    <g id="SVGRepo_bgCarrier" stroke-width="0">
        <path transform="translate(-12.48, -12.48), scale(4.56)" fill="#e69c0b"
            d="M9.166.33a2.25 2.25 0 00-2.332 0l-5.25 3.182A2.25 2.25 0 00.5 5.436v5.128a2.25 2.25 0 001.084 1.924l5.25 3.182a2.25 2.25 0 002.332 0l5.25-3.182a2.25 2.25 0 001.084-1.924V5.436a2.25 2.25 0 00-1.084-1.924L9.166.33z"
            strokewidth="0"></path>
    </g>
    <g id="SVGRepo_tracerCarrier" stroke-linecap="round" stroke-linejoin="round"></g>
    <g id="SVGRepo_iconCarrier">
        <title>certificate-star-solid</title>
        <g id="Layer_2" data-name="Layer 2">
            <g id="invisible_box" data-name="invisible box">
                <rect width="48" height="48" fill="none"></rect>
                <rect width="48" height="48" fill="none"></rect>
            </g>
            <g id="icons_Q2" data-name="icons Q2">
                <g>
                    <path fill="#343134"
                        d="M40,18A16,16,0,1,0,15,31.2V43.9a2,2,0,0,0,3.1,1.7L24,41l5.9,4.6A2,2,0,0,0,33,43.9V31.2A16,16,0,0,0,40,18ZM12,18A12,12,0,1,1,24,30,12,12,0,0,1,12,18Z">
                    </path>
                    <path fill="#343134"
                        d="M20.4,19.7l-.5,3.1a1.1,1.1,0,0,0,1.5,1.1L24,22l2.6,1.9a1.1,1.1,0,0,0,1.5-1.1l-.5-3.1,2.1-2a1.1,1.1,0,0,0-.6-1.8l-2.9-.4-1.3-2.9a1,1,0,0,0-1.8,0l-1.3,2.9-2.9.4a1.1,1.1,0,0,0-.6,1.8Z">
                    </path>
                </g>
            </g>
        </g>
    </g>
</svg>